<svg fill="#ffffff" height="800px" width="800px" version="1.2" baseProfile="tiny" id="_x31_" xmlns="http://www.w3.org/2000/svg" xmlns:xlink="http://www.w3.org/1999/xlink"
	  viewBox="0 0 256 175" xml:space="preserve">
    <path d="M 145.708 7.080 C 138.295 14.733, 136.655 17.732, 137.647 21.819 C 138.649 25.946, 230.594 117.543, 234.449 118.255 C 238.872 119.071, 241.257 117.742, 248.970 110.167 C 255.735 103.521, 256 103.080, 256 98.477 L 256 93.693 209.153 46.847 L 162.307 0 157.403 0.034 C 152.659 0.066, 152.279 0.295, 145.708 7.080 M 104.919 70.750 C 77.289 98.550, 70 106.494, 70 108.806 C 70 109.323, 69.053 111.886, 67.896 114.502 C 66.739 117.117, 65.456 121.562, 65.045 124.379 C 64.634 127.195, 63.347 133.325, 62.185 138 C 59.075 150.509, 57.039 159.356, 54.856 169.847 L 52.912 179.195 26.456 205.628 L 0 232.061 0 236.806 C 0 241.368, 0.279 241.828, 7.274 248.775 C 14.228 255.683, 14.753 256, 19.243 256 L 23.939 256 50.370 229.546 L 76.800 203.093 86.650 201.038 C 92.068 199.908, 99.200 198.322, 102.500 197.515 C 105.800 196.707, 113.675 194.865, 120 193.421 C 142.291 188.331, 146.462 186.928, 153 182.320 C 155.475 180.575, 170.545 166.067, 186.489 150.079 L 215.477 121.010 204.005 109.505 C 197.695 103.177, 191.988 98, 191.323 98 C 190.658 98, 184.195 103.918, 176.962 111.151 L 163.810 124.303 147.754 108.246 L 131.697 92.190 144.849 79.038 C 152.082 71.805, 158 65.342, 158 64.677 C 158 63.555, 136.069 41, 134.978 41 C 134.708 41, 121.182 54.387, 104.919 70.750 M 104.408 119.373 C 101.066 122.894, 99.752 125.840, 97.661 134.500 C 96.864 137.800, 94.942 145.765, 93.390 152.200 C 91.837 158.636, 90.911 164.244, 91.330 164.664 C 91.750 165.083, 96.910 164.247, 102.796 162.805 C 108.683 161.363, 115.975 159.635, 119 158.964 C 128.574 156.843, 133.184 154.919, 136.497 151.663 L 139.716 148.500 123.546 132.373 L 107.376 116.245 104.408 119.373" stroke="none" fill="#ffffff" fill-rule="evenodd"></path></svg>