<svg fill="#ffffff" height="800px" width="800px" version="1.2" baseProfile="tiny" id="_x31_" xmlns="http://www.w3.org/2000/svg" xmlns:xlink="http://www.w3.org/1999/xlink"
	  viewBox="0 0 230 230" xml:space="preserve">
<path d="M 0.040 58.750 C 0.077 113.417, 0.192 117.292, 1.695 114.500 C 4.942 108.468, 15.674 95.276, 24.475 86.498 C 59.970 51.095, 101.138 38.624, 142.905 50.624 C 170.926 58.675, 201.186 81.926, 220.153 109.979 C 222.712 113.764, 225.075 116.592, 225.403 116.264 C 225.731 115.935, 226 89.642, 226 57.833 L 226 0 113 0 L 0 0 0.040 58.750 M 0.469 59 C 0.469 91.175, 0.595 104.337, 0.749 88.250 C 0.904 72.162, 0.904 45.837, 0.749 29.750 C 0.595 13.662, 0.469 26.825, 0.469 59 M 102.500 62.013 C 91.907 63.135, 83.627 65.674, 71.500 71.521 C 61.799 76.199, 48.315 84.654, 49.185 85.515 C 49.358 85.686, 51.525 85.435, 54 84.957 C 61.111 83.582, 79.940 83.861, 89.209 85.477 C 101.069 87.545, 113.845 91.918, 129.808 99.373 C 154.928 111.105, 170.392 115.207, 190.166 115.386 C 197.132 115.449, 203.155 115.177, 203.551 114.782 C 204.782 113.552, 190.167 97.300, 180.654 89.318 C 161.280 73.063, 142.646 64.356, 122.223 62.016 C 112.735 60.929, 112.737 60.929, 102.500 62.013 M 70.742 103.675 C 68.910 107.670, 68.527 110.307, 68.515 119 C 68.501 129.003, 68.670 129.855, 72.087 137 C 79.984 153.508, 94.831 163.119, 112.500 163.162 C 125.654 163.194, 135.369 158.733, 145.320 148.091 C 150.119 142.958, 154.433 135.086, 155.575 129.375 C 156.172 126.391, 156.132 126.361, 148.031 123.692 C 143.552 122.216, 136.537 119.461, 132.443 117.569 L 125 114.130 125 118.930 C 125 122.284, 124.371 124.530, 122.912 126.385 C 114.887 136.587, 100 131.636, 100 118.765 C 100 114.424, 100.440 113.360, 103.500 110.300 C 105.425 108.375, 107 106.639, 107 106.442 C 107 105.287, 87.771 100.582, 78.727 99.525 L 72.954 98.850 70.742 103.675 M 46 102.886 C 42.975 103.864, 38.475 105.694, 36 106.954 C 29.203 110.412, 19 117.922, 19 119.467 C 19 121.108, 28.841 130.176, 38.500 137.434 C 45.004 142.321, 61.080 152.254, 61.617 151.717 C 61.747 151.586, 60.367 148.418, 58.550 144.676 C 53.950 135.204, 52.667 128.190, 53.276 115.843 C 53.556 110.154, 54.111 104.487, 54.510 103.250 C 55.412 100.444, 53.768 100.374, 46 102.886 M 0.004 172.750 L 0 225 112.531 225 C 201.635 225, 225.162 224.740, 225.541 223.750 C 225.805 223.063, 225.903 199.325, 225.760 171 C 225.505 120.585, 225.462 119.570, 223.682 122.833 C 219.649 130.223, 199.079 148.546, 184.500 157.734 C 176.051 163.059, 158.965 170.753, 149.500 173.495 C 107.385 185.696, 65.034 177.120, 27.773 148.847 C 18.290 141.652, 5.077 128.815, 2.060 123.867 L 0.007 120.500 0.004 172.750 M 0.465 173 C 0.465 201.875, 0.593 213.687, 0.749 199.250 C 0.905 184.812, 0.905 161.187, 0.749 146.750 C 0.593 132.312, 0.465 144.125, 0.465 173 M 170.531 133.819 C 170.181 135.889, 168.376 140.709, 166.520 144.531 C 164.665 148.353, 163.266 151.600, 163.413 151.747 C 163.560 151.894, 167.588 149.648, 172.364 146.757 C 181.018 141.518, 194.401 132.018, 193.811 131.533 C 193.640 131.393, 188.475 131.003, 182.333 130.667 L 171.166 130.056 170.531 133.819" stroke="none" fill="#000000" fill-rule="evenodd">
</path>
<path d="M 94.597 47.607 C 72.754 51.551, 53.392 61.208, 33.357 78.149 C 21.425 88.239, 5.441 106.813, 1.402 115.284 C -1.022 120.367, 0.517 123.381, 10.917 133.917 C 55.381 178.960, 115.869 191.193, 169 165.887 C 174.775 163.136, 181.750 159.468, 184.500 157.734 C 203.938 145.484, 226 124.017, 226 117.353 C 226 116.426, 225.731 115.935, 225.403 116.264 C 225.075 116.592, 222.712 113.764, 220.153 109.979 C 209.441 94.135, 192.581 77.336, 176.861 66.843 C 150.903 49.518, 121.756 42.702, 94.597 47.607 M 102.500 62.013 C 91.907 63.135, 83.627 65.674, 71.500 71.521 C 61.799 76.199, 48.315 84.654, 49.185 85.515 C 49.358 85.686, 51.525 85.435, 54 84.957 C 61.111 83.582, 79.940 83.861, 89.209 85.477 C 101.069 87.545, 113.845 91.918, 129.808 99.373 C 154.928 111.105, 170.392 115.207, 190.166 115.386 C 197.132 115.449, 203.155 115.177, 203.551 114.782 C 204.782 113.552, 190.167 97.300, 180.654 89.318 C 161.280 73.063, 142.646 64.356, 122.223 62.016 C 112.735 60.929, 112.737 60.929, 102.500 62.013 M 70.742 103.675 C 68.910 107.670, 68.527 110.307, 68.515 119 C 68.501 129.003, 68.670 129.855, 72.087 137 C 79.984 153.508, 94.831 163.119, 112.500 163.162 C 125.654 163.194, 135.369 158.733, 145.320 148.091 C 150.119 142.958, 154.433 135.086, 155.575 129.375 C 156.172 126.391, 156.132 126.361, 148.031 123.692 C 143.552 122.216, 136.537 119.461, 132.443 117.569 L 125 114.130 125 118.930 C 125 122.284, 124.371 124.530, 122.912 126.385 C 114.887 136.587, 100 131.636, 100 118.765 C 100 114.424, 100.440 113.360, 103.500 110.300 C 105.425 108.375, 107 106.639, 107 106.442 C 107 105.287, 87.771 100.582, 78.727 99.525 L 72.954 98.850 70.742 103.675 M 46 102.886 C 42.975 103.864, 38.475 105.694, 36 106.954 C 29.203 110.412, 19 117.922, 19 119.467 C 19 121.108, 28.841 130.176, 38.500 137.434 C 45.004 142.321, 61.080 152.254, 61.617 151.717 C 61.747 151.586, 60.367 148.418, 58.550 144.676 C 53.950 135.204, 52.667 128.190, 53.276 115.843 C 53.556 110.154, 54.111 104.487, 54.510 103.250 C 55.412 100.444, 53.768 100.374, 46 102.886 M 0.158 119 C 0.158 120.375, 0.385 120.938, 0.662 120.250 C 0.940 119.563, 0.940 118.438, 0.662 117.750 C 0.385 117.063, 0.158 117.625, 0.158 119 M 170.531 133.819 C 170.181 135.889, 168.376 140.709, 166.520 144.531 C 164.665 148.353, 163.266 151.600, 163.413 151.747 C 163.560 151.894, 167.588 149.648, 172.364 146.757 C 181.018 141.518, 194.401 132.018, 193.811 131.533 C 193.640 131.393, 188.475 131.003, 182.333 130.667 L 171.166 130.056 170.531 133.819" stroke="none" fill="#ffffff" fill-rule="evenodd"></path>
</svg>