<svg fill="#ffffff" height="800px" width="800px" version="1.2" baseProfile="tiny" id="_x31_" xmlns="http://www.w3.org/2000/svg" xmlns:xlink="http://www.w3.org/1999/xlink"
	  viewBox="100 100 550 500" xml:space="preserve">
    <path d="M 195.500 299.340 C 185.774 302.559, 178.746 308.697, 174.322 317.835 C 171.998 322.635, 171.576 324.799, 171.561 332 C 171.546 339.099, 171.976 341.431, 174.170 346.148 C 178.937 356.401, 189.583 364.453, 200.004 365.687 L 204.853 366.261 205.913 362.321 C 209.170 350.227, 221.319 341, 233.986 341 L 238.721 341 239.322 335.931 C 240.048 329.795, 238.813 322.708, 235.958 316.634 C 233.309 310.998, 225.425 303.522, 219.217 300.760 C 213.385 298.165, 201.245 297.438, 195.500 299.340 M 554 299.714 C 552.075 299.930, 544.892 300.952, 538.037 301.984 C 523.479 304.177, 522.767 304.706, 523.208 312.999 C 523.498 318.465, 523.471 318.523, 518.878 322.172 C 511.450 328.073, 489.329 348.568, 478.636 359.456 C 468.531 369.746, 456 385.452, 456 387.829 C 456 388.861, 457.400 389.018, 462.250 388.528 C 465.688 388.180, 474.255 387.550, 481.290 387.128 L 494.080 386.359 497.290 382.429 C 503.382 374.972, 518.321 358.453, 532.520 343.475 L 546.762 328.450 559.631 323.613 C 585.800 313.778, 589.123 311.611, 587.563 305.397 C 586.340 300.524, 581.773 298.990, 569 299.164 C 562.675 299.250, 555.925 299.497, 554 299.714 M 226.976 349.534 C 221.470 351.231, 216.391 355.974, 213.625 362 C 209.500 370.987, 211.251 388.660, 217.291 399 C 220.093 403.797, 225.938 411, 227.029 411 C 227.522 411, 228.054 406.839, 228.212 401.754 L 228.500 392.509 233.279 409.504 C 235.907 418.852, 238.044 426.745, 238.029 427.043 C 238.013 427.342, 226.188 426.338, 211.750 424.811 C 177.415 421.180, 166.210 420.510, 162.732 421.876 C 158.712 423.456, 157.504 427.412, 159.470 432.560 C 162.821 441.335, 170.177 445.050, 190.946 448.459 C 229.158 454.730, 254.249 455.566, 263.691 450.885 C 271.149 447.186, 271.184 446.503, 265.160 421.797 C 262.303 410.084, 259.998 400.050, 260.036 399.500 C 260.075 398.950, 263.895 406.008, 268.526 415.185 L 276.946 431.869 281.677 432.579 C 284.280 432.969, 313.879 433.029, 347.454 432.711 L 408.500 432.134 482.500 426.511 C 523.200 423.418, 558.351 421.156, 560.613 421.485 C 565.879 422.249, 577.649 427.878, 582.075 431.750 C 590.204 438.860, 600.636 441.418, 603.056 436.895 C 607.498 428.596, 589.521 401.751, 574.813 394.719 C 569.178 392.025, 568.932 392, 547.941 392 C 525.299 392, 492.825 393.353, 466.013 395.413 L 449.526 396.680 433.871 393.382 C 412.975 388.980, 396.344 384.721, 385.957 381.111 C 373.621 376.824, 358.693 375.675, 326.500 376.535 C 308.661 377.011, 298.617 376.876, 294.500 376.104 C 285.778 374.470, 275.418 369.053, 268.727 362.629 C 259.733 353.994, 245.293 347.831, 234.614 348.070 C 232.901 348.108, 229.464 348.767, 226.976 349.534 M 164 400.690 C 162.625 400.919, 159.158 401.765, 156.297 402.568 C 148.135 404.859, 145.548 410.638, 150.477 415.568 C 152.941 418.032, 152.966 418.034, 154.921 416.079 C 159.018 411.982, 166.435 412.092, 200.250 416.746 C 211.662 418.317, 221 419.251, 221 418.821 C 221 418.391, 218.412 413.982, 215.250 409.023 L 209.500 400.007 188 400.140 C 176.175 400.213, 165.375 400.460, 164 400.690" stroke="none" fill="#ffffff" fill-rule="evenodd"></path></svg>