<svg fill="#ffffff" height="800px" width="800px" version="1.2" baseProfile="tiny" id="_x31_" xmlns="http://www.w3.org/2000/svg" xmlns:xlink="http://www.w3.org/1999/xlink"
	  viewBox="100 100 550 500" xml:space="preserve"><path d="M 555.357 280.042 C 543.585 281.675, 532.176 289.834, 527.021 300.306 C 514.993 324.737, 528.691 352.405, 555.090 357.002 C 581.197 361.548, 604.580 338.377, 600.062 312.435 C 596.254 290.568, 577.488 276.970, 555.357 280.042 M 509.729 318.003 C 507.845 320.205, 503.341 327.994, 499.720 335.313 C 489.138 356.704, 477.752 369.248, 461.089 377.873 C 450.471 383.368, 442.289 385.651, 421 389.056 C 383.291 395.088, 361.699 399.018, 336 404.526 C 313.150 409.423, 285.082 412.534, 223.206 417.028 L 193.912 419.156 184.700 414.674 C 179.634 412.210, 174.078 408.687, 172.355 406.847 C 159.123 392.717, 159.281 392.849, 155.923 393.181 C 150.718 393.696, 148.495 397.644, 148.523 406.323 C 148.554 416.097, 151.095 423.280, 158.611 434.840 C 167.703 448.824, 167.901 449.060, 171.874 450.722 C 176.729 452.752, 193.698 452.013, 199.806 449.506 C 203.736 447.892, 205.528 447.837, 220.326 448.869 C 240.787 450.296, 286.889 450.328, 302 448.926 C 308.325 448.339, 318.450 446.927, 324.500 445.790 C 330.758 444.613, 341.480 443.532, 349.372 443.283 L 363.244 442.845 370.872 435.123 C 383.415 422.427, 388.303 420.584, 416.427 417.946 C 429.752 416.697, 440.734 414.196, 447.049 410.975 L 451.259 408.827 449.141 411.802 C 444.120 418.853, 430.323 424.799, 411.773 427.906 C 390.214 431.517, 376.085 442.423, 376.026 455.500 C 375.962 469.422, 390.404 473.797, 430.500 472.003 C 448.580 471.195, 469.994 469.340, 470.823 468.510 C 471.002 468.332, 470.439 466.816, 469.574 465.143 C 465.949 458.133, 469.081 448.104, 476.485 443.010 C 486.914 435.835, 500.351 433.127, 529.500 432.327 C 558.113 431.541, 559.028 430.995, 563.618 412 L 565.430 404.500 566.157 408.500 C 568.077 419.057, 566.157 432.740, 562.260 436.264 C 560.964 437.436, 556.679 438.142, 546 438.946 C 506.720 441.900, 486.263 446.334, 480.542 453.133 C 476.929 457.426, 477.274 460.509, 481.882 465.118 C 485.476 468.712, 486.184 469, 491.417 469 C 494.856 469, 500.228 467.956, 505.133 466.335 L 513.196 463.670 527.348 465.860 C 545.693 468.699, 563.323 469.966, 569.929 468.922 C 585.033 466.535, 595.608 454.586, 600.887 433.942 C 606.208 413.134, 603.694 384.432, 594.731 363.675 C 590.684 354.305, 590.885 354.460, 586.590 357.375 C 577.443 363.582, 563.688 366.323, 552.912 364.086 C 531.204 359.579, 515 339.823, 515 317.864 C 515 315.739, 514.585 314, 514.078 314 C 513.571 314, 511.614 315.801, 509.729 318.003" stroke="none" fill="#ffffff" fill-rule="evenodd"></path></svg>